# xmcd CD database file
#
# Track frame offsets:
#	150
#	18368
#	38142
#	58145
#	76105
#	92032
#	109730
#	128577
#	147341
#	169337
#	189701
#	215644
#	237724
#	257566
#	278160
#	293285
#	310355
#	331011
#
# Disc length: 4647 seconds
#
# Revision: 3
# Processed by: cddbd v1.4PL0 Copyright (c) Steve Scherf et al.
# Submitted via: CDex 1.50
#
DISCID=02122512
DTITLE=Desconocido - Desconocido
DYEAR=1900
DGENRE=
TTITLE0=Pista 1
TTITLE1=Pista 2
TTITLE2=Pista 3
TTITLE3=Pista 4
TTITLE4=Pista 5
TTITLE5=Pista 6
TTITLE6=Pista 7
TTITLE7=Pista 8
TTITLE8=Pista 9
TTITLE9=Pista 10
TTITLE10=Pista 11
TTITLE11=Pista 12
TTITLE12=Pista 13
TTITLE13=Pista 14
TTITLE14=Pista 15
TTITLE15=Pista 16
TTITLE16=Pista 17
TTITLE17=Pista 18
EXTD=
EXTT0=
EXTT1=
EXTT2=
EXTT3=
EXTT4=
EXTT5=
EXTT6=
EXTT7=
EXTT8=
EXTT9=
EXTT10=
EXTT11=
EXTT12=
EXTT13=
EXTT14=
EXTT15=
EXTT16=
EXTT17=
PLAYORDER=
